<?xml version="1.0" standalone="no"?>
<!DOCTYPE svg PUBLIC "-//W3C//DTD SVG 1.1//EN" "http://www.w3.org/Graphics/SVG/1.1/DTD/svg11.dtd">
<svg xmlns="http://www.w3.org/2000/svg" width="321" height="311" viewBox="0 0 321 311" fill="none">
<mask id="path-1-outside-1_41_28" maskUnits="userSpaceOnUse" x="0" y="0" width="322" height="311" fill="black">
<rect fill="white" width="322" height="311"/>
<path d="M229.943 92.0331C229.943 104.545 229.98 117.058 229.898 129.57C229.888 131.167 230.374 132.102 231.755 132.713C235.404 134.33 238.976 136.129 242.533 137.915C246.286 139.799 250.092 141.59 253.813 143.552C258.264 145.899 262.861 147.972 267.379 150.192C271.992 152.458 276.578 154.776 281.192 157.041C284.784 158.805 288.408 160.501 291.998 162.267C295.287 163.885 298.632 165.42 301.789 167.271C303.339 168.179 303.995 169.883 303.99 171.854C303.95 192.803 303.967 213.755 303.968 234.705C303.968 240.639 303.856 246.577 303.993 252.508C304.126 258.192 302.438 258.369 298.588 260.279C293.483 262.811 288.244 265.073 283.14 267.624C278.487 269.95 273.687 271.986 268.975 274.194C265.346 275.894 261.763 277.689 258.137 279.398C253.304 281.675 248.44 283.883 243.614 286.172C238.783 288.464 233.976 290.809 229.17 293.155C226.848 294.288 224.604 294.278 222.254 293.131C216.435 290.292 210.56 287.572 204.731 284.753C200.029 282.479 195.372 280.113 190.679 277.823C186.072 275.574 181.442 273.378 176.829 271.143C172.92 269.248 169.019 267.339 165.12 265.423C162.964 264.364 160.763 263.354 158.562 262.466C157.641 262.095 156.039 263.287 154.797 263.875C148.808 266.711 142.825 269.561 136.861 272.448C132.052 274.775 127.285 277.191 122.472 279.515C117.782 281.78 113.045 283.953 108.355 286.217C104.543 288.057 100.792 290.027 96.9639 291.833C94.9619 292.778 93.1106 294.078 90.6449 293.929C88.8806 293.822 87.5566 292.858 86.1438 292.185C80.2534 289.377 74.5738 286.113 68.6298 283.434C61.9091 280.405 55.411 276.933 48.7272 273.834C41.8859 270.66 35.2221 267.11 28.4579 263.769C25.9337 262.523 23.3576 261.378 20.7864 260.229C18.1869 259.074 16.9884 257.211 17.0001 254.395C17.1189 226.152 17.2311 197.909 17.3298 169.665C17.3416 166.189 18.1032 165.192 21.3522 163.741C24.8959 162.159 28.3089 160.286 31.8292 158.649C36.9362 156.273 41.9696 153.738 47.0365 151.286C52.5972 148.595 58.1629 145.906 63.7019 143.165C68.4323 140.824 73.1092 138.376 77.9585 136.275C80.2902 135.265 82.5349 134.052 84.8265 132.948C85.9346 132.413 85.9597 131.452 85.9664 130.409C86.1154 108.744 86.2794 87.0804 86.4384 65.4151C86.4602 62.4126 86.5271 59.4069 86.4669 56.4061C86.4183 53.9951 87.3624 52.0717 89.4063 50.986C93.5776 48.7677 97.8695 46.7773 102.103 44.6729C106.775 42.3524 111.428 39.995 116.103 37.6812C120.783 35.3657 125.494 33.1089 130.169 30.78C133.766 28.9889 137.315 27.0974 140.91 25.3029C144.439 23.5437 148.006 21.8632 151.543 20.1241C153.06 19.3785 154.559 18.5927 156.046 17.7868C158.001 16.7279 159.876 16.7598 161.899 17.75C166.642 20.0705 171.459 22.2335 176.226 24.5054C179.84 26.2278 183.411 28.0406 187.018 29.7731C190.875 31.6261 194.763 33.4155 198.621 35.2635C202.182 36.9675 205.72 38.7183 209.274 40.439C213.189 42.334 217.1 44.2356 221.058 46.0434C223.333 47.0822 225.596 48.1914 227.839 49.3122C229.794 50.289 230.524 52.06 230.516 54.28C230.469 66.8643 230.494 79.4487 230.494 92.0314C230.31 92.0314 230.128 92.0314 229.943 92.0314V92.0331ZM25.9588 211.922C25.9588 225.004 25.9638 238.088 25.9487 251.17C25.9487 252.193 25.9169 253.075 27.0837 253.626C29.4857 254.762 31.7974 256.09 34.1927 257.243C39.7099 259.9 45.2823 262.445 50.7827 265.138C56.6062 267.988 62.3561 270.987 68.1695 273.859C75.2785 277.372 82.4345 280.792 89.5335 284.329C90.8374 284.979 91.882 284.937 93.1324 284.265C95.8006 282.832 98.5223 281.497 101.249 280.177C105.864 277.942 110.511 275.775 115.121 273.532C119.87 271.222 124.568 268.812 129.329 266.527C134.032 264.268 138.801 262.147 143.51 259.9C147.824 257.843 152.097 255.7 156.384 253.589C157.695 252.944 158.943 252.994 160.276 253.644C164.127 255.524 168.033 257.293 171.888 259.167C176.641 261.475 181.323 263.942 186.116 266.167C192.857 269.296 199.542 272.547 206.231 275.774C212.135 278.622 218.114 281.346 223.886 284.476C224.955 285.056 226.174 285.285 227.165 284.664C229.701 283.072 232.535 282.134 235.169 280.765C238.852 278.85 242.665 277.19 246.418 275.412C250.119 273.658 253.81 271.885 257.511 270.136C261.393 268.3 265.284 266.48 269.17 264.652C272.611 263.034 276.053 261.415 279.493 259.792C283.624 257.841 287.708 255.782 291.899 253.971C295.035 252.616 295.097 252.756 295.097 249.261C295.097 238.681 295.097 228.1 295.097 217.52C295.097 203.436 295.102 189.352 295.088 175.27C295.088 174.466 295.467 173.433 294.405 173.003C292.318 172.157 290.359 171.066 288.352 170.061C280.664 166.212 272.859 162.6 265.137 158.818C258.442 155.541 251.82 152.115 245.127 148.831C238.5 145.581 231.84 142.397 225.164 139.247C222.483 137.982 221.274 136.015 221.371 133.028C221.502 129.029 221.425 125.023 221.447 121.018C221.562 100.002 221.673 78.9846 221.823 57.9677C221.833 56.5351 221.589 55.7745 220.004 55.1998C217.297 54.2213 214.786 52.7034 212.18 51.4401C208.328 49.5736 204.462 47.7356 200.605 45.8792C195.913 43.619 191.226 41.3471 186.534 39.0903C182.924 37.3545 179.308 35.6288 175.692 33.9031C170.744 31.5407 165.758 29.252 160.867 26.7773C159.569 26.1206 158.682 26.0602 157.367 26.7505C152.633 29.2352 147.795 31.5222 143.008 33.9064C139.603 35.602 136.215 37.3327 132.824 39.0551C129.245 40.873 125.688 42.7361 122.089 44.5137C117.474 46.794 112.819 48.9906 108.199 51.2608C104.672 52.9949 101.234 54.9284 97.6351 56.4949C95.7369 57.3209 94.9318 58.3061 94.9251 60.4356C94.8431 85.2407 94.6573 110.048 94.5552 134.853C94.5468 136.733 93.7952 138.093 92.2854 138.87C87.9098 141.124 83.4656 143.242 79.0298 145.376C74.2843 147.658 69.5053 149.868 64.7665 152.162C61.0236 153.973 57.331 155.89 53.5949 157.713C48.8376 160.035 44.067 162.325 39.288 164.6C35.5385 166.387 31.7806 168.152 28.006 169.882C26.5915 170.53 25.9052 171.363 25.9169 173.098C26.0057 186.038 25.9655 198.977 25.9588 211.917V211.922Z"/>
</mask>
<path d="M229.943 92.0331C229.943 104.545 229.98 117.058 229.898 129.57C229.888 131.167 230.374 132.102 231.755 132.713C235.404 134.33 238.976 136.129 242.533 137.915C246.286 139.799 250.092 141.59 253.813 143.552C258.264 145.899 262.861 147.972 267.379 150.192C271.992 152.458 276.578 154.776 281.192 157.041C284.784 158.805 288.408 160.501 291.998 162.267C295.287 163.885 298.632 165.42 301.789 167.271C303.339 168.179 303.995 169.883 303.99 171.854C303.95 192.803 303.967 213.755 303.968 234.705C303.968 240.639 303.856 246.577 303.993 252.508C304.126 258.192 302.438 258.369 298.588 260.279C293.483 262.811 288.244 265.073 283.14 267.624C278.487 269.95 273.687 271.986 268.975 274.194C265.346 275.894 261.763 277.689 258.137 279.398C253.304 281.675 248.44 283.883 243.614 286.172C238.783 288.464 233.976 290.809 229.17 293.155C226.848 294.288 224.604 294.278 222.254 293.131C216.435 290.292 210.56 287.572 204.731 284.753C200.029 282.479 195.372 280.113 190.679 277.823C186.072 275.574 181.442 273.378 176.829 271.143C172.92 269.248 169.019 267.339 165.12 265.423C162.964 264.364 160.763 263.354 158.562 262.466C157.641 262.095 156.039 263.287 154.797 263.875C148.808 266.711 142.825 269.561 136.861 272.448C132.052 274.775 127.285 277.191 122.472 279.515C117.782 281.78 113.045 283.953 108.355 286.217C104.543 288.057 100.792 290.027 96.9639 291.833C94.9619 292.778 93.1106 294.078 90.6449 293.929C88.8806 293.822 87.5566 292.858 86.1438 292.185C80.2534 289.377 74.5738 286.113 68.6298 283.434C61.9091 280.405 55.411 276.933 48.7272 273.834C41.8859 270.66 35.2221 267.11 28.4579 263.769C25.9337 262.523 23.3576 261.378 20.7864 260.229C18.1869 259.074 16.9884 257.211 17.0001 254.395C17.1189 226.152 17.2311 197.909 17.3298 169.665C17.3416 166.189 18.1032 165.192 21.3522 163.741C24.8959 162.159 28.3089 160.286 31.8292 158.649C36.9362 156.273 41.9696 153.738 47.0365 151.286C52.5972 148.595 58.1629 145.906 63.7019 143.165C68.4323 140.824 73.1092 138.376 77.9585 136.275C80.2902 135.265 82.5349 134.052 84.8265 132.948C85.9346 132.413 85.9597 131.452 85.9664 130.409C86.1154 108.744 86.2794 87.0804 86.4384 65.4151C86.4602 62.4126 86.5271 59.4069 86.4669 56.4061C86.4183 53.9951 87.3624 52.0717 89.4063 50.986C93.5776 48.7677 97.8695 46.7773 102.103 44.6729C106.775 42.3524 111.428 39.995 116.103 37.6812C120.783 35.3657 125.494 33.1089 130.169 30.78C133.766 28.9889 137.315 27.0974 140.91 25.3029C144.439 23.5437 148.006 21.8632 151.543 20.1241C153.06 19.3785 154.559 18.5927 156.046 17.7868C158.001 16.7279 159.876 16.7598 161.899 17.75C166.642 20.0705 171.459 22.2335 176.226 24.5054C179.84 26.2278 183.411 28.0406 187.018 29.7731C190.875 31.6261 194.763 33.4155 198.621 35.2635C202.182 36.9675 205.72 38.7183 209.274 40.439C213.189 42.334 217.1 44.2356 221.058 46.0434C223.333 47.0822 225.596 48.1914 227.839 49.3122C229.794 50.289 230.524 52.06 230.516 54.28C230.469 66.8643 230.494 79.4487 230.494 92.0314C230.31 92.0314 230.128 92.0314 229.943 92.0314V92.0331ZM25.9588 211.922C25.9588 225.004 25.9638 238.088 25.9487 251.17C25.9487 252.193 25.9169 253.075 27.0837 253.626C29.4857 254.762 31.7974 256.09 34.1927 257.243C39.7099 259.9 45.2823 262.445 50.7827 265.138C56.6062 267.988 62.3561 270.987 68.1695 273.859C75.2785 277.372 82.4345 280.792 89.5335 284.329C90.8374 284.979 91.882 284.937 93.1324 284.265C95.8006 282.832 98.5223 281.497 101.249 280.177C105.864 277.942 110.511 275.775 115.121 273.532C119.87 271.222 124.568 268.812 129.329 266.527C134.032 264.268 138.801 262.147 143.51 259.9C147.824 257.843 152.097 255.7 156.384 253.589C157.695 252.944 158.943 252.994 160.276 253.644C164.127 255.524 168.033 257.293 171.888 259.167C176.641 261.475 181.323 263.942 186.116 266.167C192.857 269.296 199.542 272.547 206.231 275.774C212.135 278.622 218.114 281.346 223.886 284.476C224.955 285.056 226.174 285.285 227.165 284.664C229.701 283.072 232.535 282.134 235.169 280.765C238.852 278.85 242.665 277.19 246.418 275.412C250.119 273.658 253.81 271.885 257.511 270.136C261.393 268.3 265.284 266.48 269.17 264.652C272.611 263.034 276.053 261.415 279.493 259.792C283.624 257.841 287.708 255.782 291.899 253.971C295.035 252.616 295.097 252.756 295.097 249.261C295.097 238.681 295.097 228.1 295.097 217.52C295.097 203.436 295.102 189.352 295.088 175.27C295.088 174.466 295.467 173.433 294.405 173.003C292.318 172.157 290.359 171.066 288.352 170.061C280.664 166.212 272.859 162.6 265.137 158.818C258.442 155.541 251.82 152.115 245.127 148.831C238.5 145.581 231.84 142.397 225.164 139.247C222.483 137.982 221.274 136.015 221.371 133.028C221.502 129.029 221.425 125.023 221.447 121.018C221.562 100.002 221.673 78.9846 221.823 57.9677C221.833 56.5351 221.589 55.7745 220.004 55.1998C217.297 54.2213 214.786 52.7034 212.18 51.4401C208.328 49.5736 204.462 47.7356 200.605 45.8792C195.913 43.619 191.226 41.3471 186.534 39.0903C182.924 37.3545 179.308 35.6288 175.692 33.9031C170.744 31.5407 165.758 29.252 160.867 26.7773C159.569 26.1206 158.682 26.0602 157.367 26.7505C152.633 29.2352 147.795 31.5222 143.008 33.9064C139.603 35.602 136.215 37.3327 132.824 39.0551C129.245 40.873 125.688 42.7361 122.089 44.5137C117.474 46.794 112.819 48.9906 108.199 51.2608C104.672 52.9949 101.234 54.9284 97.6351 56.4949C95.7369 57.3209 94.9318 58.3061 94.9251 60.4356C94.8431 85.2407 94.6573 110.048 94.5552 134.853C94.5468 136.733 93.7952 138.093 92.2854 138.87C87.9098 141.124 83.4656 143.242 79.0298 145.376C74.2843 147.658 69.5053 149.868 64.7665 152.162C61.0236 153.973 57.331 155.89 53.5949 157.713C48.8376 160.035 44.067 162.325 39.288 164.6C35.5385 166.387 31.7806 168.152 28.006 169.882C26.5915 170.53 25.9052 171.363 25.9169 173.098C26.0057 186.038 25.9655 198.977 25.9588 211.917V211.922Z" fill="#1E1E1E"/>
<path d="M229.943 92.0331C229.943 104.545 229.98 117.058 229.898 129.57C229.888 131.167 230.374 132.102 231.755 132.713C235.404 134.33 238.976 136.129 242.533 137.915C246.286 139.799 250.092 141.59 253.813 143.552C258.264 145.899 262.861 147.972 267.379 150.192C271.992 152.458 276.578 154.776 281.192 157.041C284.784 158.805 288.408 160.501 291.998 162.267C295.287 163.885 298.632 165.42 301.789 167.271C303.339 168.179 303.995 169.883 303.99 171.854C303.95 192.803 303.967 213.755 303.968 234.705C303.968 240.639 303.856 246.577 303.993 252.508C304.126 258.192 302.438 258.369 298.588 260.279C293.483 262.811 288.244 265.073 283.14 267.624C278.487 269.95 273.687 271.986 268.975 274.194C265.346 275.894 261.763 277.689 258.137 279.398C253.304 281.675 248.44 283.883 243.614 286.172C238.783 288.464 233.976 290.809 229.17 293.155C226.848 294.288 224.604 294.278 222.254 293.131C216.435 290.292 210.56 287.572 204.731 284.753C200.029 282.479 195.372 280.113 190.679 277.823C186.072 275.574 181.442 273.378 176.829 271.143C172.92 269.248 169.019 267.339 165.12 265.423C162.964 264.364 160.763 263.354 158.562 262.466C157.641 262.095 156.039 263.287 154.797 263.875C148.808 266.711 142.825 269.561 136.861 272.448C132.052 274.775 127.285 277.191 122.472 279.515C117.782 281.78 113.045 283.953 108.355 286.217C104.543 288.057 100.792 290.027 96.9639 291.833C94.9619 292.778 93.1106 294.078 90.6449 293.929C88.8806 293.822 87.5566 292.858 86.1438 292.185C80.2534 289.377 74.5738 286.113 68.6298 283.434C61.9091 280.405 55.411 276.933 48.7272 273.834C41.8859 270.66 35.2221 267.11 28.4579 263.769C25.9337 262.523 23.3576 261.378 20.7864 260.229C18.1869 259.074 16.9884 257.211 17.0001 254.395C17.1189 226.152 17.2311 197.909 17.3298 169.665C17.3416 166.189 18.1032 165.192 21.3522 163.741C24.8959 162.159 28.3089 160.286 31.8292 158.649C36.9362 156.273 41.9696 153.738 47.0365 151.286C52.5972 148.595 58.1629 145.906 63.7019 143.165C68.4323 140.824 73.1092 138.376 77.9585 136.275C80.2902 135.265 82.5349 134.052 84.8265 132.948C85.9346 132.413 85.9597 131.452 85.9664 130.409C86.1154 108.744 86.2794 87.0804 86.4384 65.4151C86.4602 62.4126 86.5271 59.4069 86.4669 56.4061C86.4183 53.9951 87.3624 52.0717 89.4063 50.986C93.5776 48.7677 97.8695 46.7773 102.103 44.6729C106.775 42.3524 111.428 39.995 116.103 37.6812C120.783 35.3657 125.494 33.1089 130.169 30.78C133.766 28.9889 137.315 27.0974 140.91 25.3029C144.439 23.5437 148.006 21.8632 151.543 20.1241C153.06 19.3785 154.559 18.5927 156.046 17.7868C158.001 16.7279 159.876 16.7598 161.899 17.75C166.642 20.0705 171.459 22.2335 176.226 24.5054C179.84 26.2278 183.411 28.0406 187.018 29.7731C190.875 31.6261 194.763 33.4155 198.621 35.2635C202.182 36.9675 205.72 38.7183 209.274 40.439C213.189 42.334 217.1 44.2356 221.058 46.0434C223.333 47.0822 225.596 48.1914 227.839 49.3122C229.794 50.289 230.524 52.06 230.516 54.28C230.469 66.8643 230.494 79.4487 230.494 92.0314C230.31 92.0314 230.128 92.0314 229.943 92.0314V92.0331ZM25.9588 211.922C25.9588 225.004 25.9638 238.088 25.9487 251.17C25.9487 252.193 25.9169 253.075 27.0837 253.626C29.4857 254.762 31.7974 256.09 34.1927 257.243C39.7099 259.9 45.2823 262.445 50.7827 265.138C56.6062 267.988 62.3561 270.987 68.1695 273.859C75.2785 277.372 82.4345 280.792 89.5335 284.329C90.8374 284.979 91.882 284.937 93.1324 284.265C95.8006 282.832 98.5223 281.497 101.249 280.177C105.864 277.942 110.511 275.775 115.121 273.532C119.87 271.222 124.568 268.812 129.329 266.527C134.032 264.268 138.801 262.147 143.51 259.9C147.824 257.843 152.097 255.7 156.384 253.589C157.695 252.944 158.943 252.994 160.276 253.644C164.127 255.524 168.033 257.293 171.888 259.167C176.641 261.475 181.323 263.942 186.116 266.167C192.857 269.296 199.542 272.547 206.231 275.774C212.135 278.622 218.114 281.346 223.886 284.476C224.955 285.056 226.174 285.285 227.165 284.664C229.701 283.072 232.535 282.134 235.169 280.765C238.852 278.85 242.665 277.19 246.418 275.412C250.119 273.658 253.81 271.885 257.511 270.136C261.393 268.3 265.284 266.48 269.17 264.652C272.611 263.034 276.053 261.415 279.493 259.792C283.624 257.841 287.708 255.782 291.899 253.971C295.035 252.616 295.097 252.756 295.097 249.261C295.097 238.681 295.097 228.1 295.097 217.52C295.097 203.436 295.102 189.352 295.088 175.27C295.088 174.466 295.467 173.433 294.405 173.003C292.318 172.157 290.359 171.066 288.352 170.061C280.664 166.212 272.859 162.6 265.137 158.818C258.442 155.541 251.82 152.115 245.127 148.831C238.5 145.581 231.84 142.397 225.164 139.247C222.483 137.982 221.274 136.015 221.371 133.028C221.502 129.029 221.425 125.023 221.447 121.018C221.562 100.002 221.673 78.9846 221.823 57.9677C221.833 56.5351 221.589 55.7745 220.004 55.1998C217.297 54.2213 214.786 52.7034 212.18 51.4401C208.328 49.5736 204.462 47.7356 200.605 45.8792C195.913 43.619 191.226 41.3471 186.534 39.0903C182.924 37.3545 179.308 35.6288 175.692 33.9031C170.744 31.5407 165.758 29.252 160.867 26.7773C159.569 26.1206 158.682 26.0602 157.367 26.7505C152.633 29.2352 147.795 31.5222 143.008 33.9064C139.603 35.602 136.215 37.3327 132.824 39.0551C129.245 40.873 125.688 42.7361 122.089 44.5137C117.474 46.794 112.819 48.9906 108.199 51.2608C104.672 52.9949 101.234 54.9284 97.6351 56.4949C95.7369 57.3209 94.9318 58.3061 94.9251 60.4356C94.8431 85.2407 94.6573 110.048 94.5552 134.853C94.5468 136.733 93.7952 138.093 92.2854 138.87C87.9098 141.124 83.4656 143.242 79.0298 145.376C74.2843 147.658 69.5053 149.868 64.7665 152.162C61.0236 153.973 57.331 155.89 53.5949 157.713C48.8376 160.035 44.067 162.325 39.288 164.6C35.5385 166.387 31.7806 168.152 28.006 169.882C26.5915 170.53 25.9052 171.363 25.9169 173.098C26.0057 186.038 25.9655 198.977 25.9588 211.917V211.922Z" stroke="black" stroke-width="34" mask="url(#path-1-outside-1_41_28)"/>
<path d="M95.5 77C95.8333 70.1667 110.6 51.4 167 31L223.5 43V91.5L230 141L261 157.5L298 183.5V224.5L270 279.5L213.5 291L149.5 268L95.5 291L41 268L21.5 224.5L35 171L85.5 141L95.5 77Z" fill="black" stroke="black"/>
<path d="M229.943 92.0331C229.943 104.545 229.98 117.058 229.898 129.57C229.888 131.167 230.374 132.102 231.755 132.713C235.404 134.33 238.976 136.129 242.533 137.915C246.286 139.799 250.092 141.59 253.813 143.552C258.264 145.899 262.861 147.972 267.379 150.192C271.992 152.458 276.578 154.776 281.192 157.041C284.784 158.805 288.408 160.501 291.998 162.267C295.287 163.885 298.632 165.42 301.789 167.271C303.339 168.179 303.995 169.883 303.99 171.854C303.95 192.803 303.967 213.755 303.968 234.705C303.968 240.639 303.856 246.577 303.993 252.508C304.126 258.192 302.438 258.369 298.588 260.279C293.483 262.811 288.244 265.073 283.14 267.624C278.487 269.95 273.687 271.986 268.975 274.194C265.346 275.894 261.763 277.689 258.137 279.398C253.304 281.675 248.44 283.883 243.614 286.172C238.783 288.464 233.976 290.809 229.17 293.155C226.848 294.288 224.604 294.278 222.254 293.131C216.435 290.292 210.56 287.572 204.731 284.753C200.029 282.479 195.372 280.113 190.679 277.823C186.072 275.574 181.442 273.378 176.829 271.143C172.92 269.248 169.019 267.339 165.12 265.423C162.964 264.364 160.763 263.354 158.562 262.466C157.641 262.095 156.039 263.287 154.797 263.875C148.808 266.711 142.825 269.561 136.861 272.448C132.052 274.775 127.285 277.191 122.472 279.515C117.782 281.78 113.045 283.953 108.355 286.217C104.543 288.057 100.792 290.027 96.9639 291.833C94.9619 292.778 93.1106 294.078 90.6449 293.929C88.8806 293.822 87.5566 292.858 86.1438 292.185C80.2534 289.377 74.5738 286.113 68.6298 283.434C61.9091 280.405 55.411 276.933 48.7272 273.834C41.8859 270.66 35.2221 267.11 28.4579 263.769C25.9337 262.523 23.3576 261.378 20.7864 260.229C18.1869 259.074 16.9884 257.211 17.0001 254.395C17.1189 226.152 17.2311 197.909 17.3298 169.665C17.3416 166.189 18.1032 165.192 21.3522 163.741C24.8959 162.159 28.3089 160.286 31.8292 158.649C36.9362 156.273 41.9696 153.738 47.0365 151.286C52.5972 148.595 58.1629 145.906 63.7019 143.165C68.4323 140.824 73.1092 138.376 77.9585 136.275C80.2902 135.265 82.5349 134.052 84.8265 132.948C85.9346 132.413 85.9597 131.452 85.9664 130.409C86.1154 108.744 86.2794 87.0804 86.4384 65.4151C86.4602 62.4126 86.5271 59.4069 86.4669 56.4061C86.4183 53.9951 87.3624 52.0717 89.4063 50.986C93.5776 48.7677 97.8695 46.7773 102.103 44.6729C106.775 42.3524 111.428 39.995 116.103 37.6812C120.783 35.3657 125.494 33.1089 130.169 30.78C133.766 28.9889 137.315 27.0974 140.91 25.3029C144.439 23.5437 148.006 21.8632 151.543 20.1241C153.06 19.3785 154.559 18.5927 156.046 17.7868C158.001 16.7279 159.876 16.7598 161.899 17.75C166.642 20.0705 171.459 22.2335 176.226 24.5054C179.84 26.2278 183.411 28.0406 187.018 29.7731C190.875 31.6261 194.763 33.4155 198.621 35.2635C202.182 36.9675 205.72 38.7183 209.274 40.439C213.189 42.334 217.1 44.2356 221.058 46.0434C223.333 47.0822 225.596 48.1914 227.839 49.3122C229.794 50.289 230.524 52.06 230.516 54.28C230.469 66.8643 230.494 79.4487 230.494 92.0314C230.31 92.0314 230.128 92.0314 229.943 92.0314V92.0331ZM25.9588 211.922C25.9588 225.004 25.9638 238.088 25.9487 251.17C25.9487 252.193 25.9169 253.075 27.0837 253.626C29.4857 254.762 31.7974 256.09 34.1927 257.243C39.7099 259.9 45.2823 262.445 50.7827 265.138C56.6062 267.988 62.3561 270.987 68.1695 273.859C75.2785 277.372 82.4345 280.792 89.5335 284.329C90.8374 284.979 91.882 284.937 93.1324 284.265C95.8006 282.832 98.5223 281.497 101.249 280.177C105.864 277.942 110.511 275.775 115.121 273.532C119.87 271.222 124.568 268.812 129.329 266.527C134.032 264.268 138.801 262.147 143.51 259.9C147.824 257.843 152.097 255.7 156.384 253.589C157.695 252.944 158.943 252.994 160.276 253.644C164.127 255.524 168.033 257.293 171.888 259.167C176.641 261.475 181.323 263.942 186.116 266.167C192.857 269.296 199.542 272.547 206.231 275.774C212.135 278.622 218.114 281.346 223.886 284.476C224.955 285.056 226.174 285.285 227.165 284.664C229.701 283.072 232.535 282.134 235.169 280.765C238.852 278.85 242.665 277.19 246.418 275.412C250.119 273.658 253.81 271.885 257.511 270.136C261.393 268.3 265.284 266.48 269.17 264.652C272.611 263.034 276.053 261.415 279.493 259.792C283.624 257.841 287.708 255.782 291.899 253.971C295.035 252.616 295.097 252.756 295.097 249.261C295.097 238.681 295.097 228.1 295.097 217.52C295.097 203.436 295.102 189.352 295.088 175.27C295.088 174.466 295.467 173.433 294.405 173.003C292.318 172.157 290.359 171.066 288.352 170.061C280.664 166.212 272.859 162.6 265.137 158.818C258.442 155.541 251.82 152.115 245.127 148.831C238.5 145.581 231.84 142.397 225.164 139.247C222.483 137.982 221.274 136.015 221.371 133.028C221.502 129.029 221.425 125.023 221.447 121.018C221.562 100.002 221.673 78.9846 221.823 57.9677C221.833 56.5351 221.589 55.7745 220.004 55.1998C217.297 54.2213 214.786 52.7034 212.18 51.4401C208.328 49.5736 204.462 47.7356 200.605 45.8792C195.913 43.619 191.226 41.3471 186.534 39.0903C182.924 37.3545 179.308 35.6288 175.692 33.9031C170.744 31.5407 165.758 29.252 160.867 26.7773C159.569 26.1206 158.682 26.0602 157.367 26.7505C152.633 29.2352 147.795 31.5222 143.008 33.9064C139.603 35.602 136.215 37.3327 132.824 39.0551C129.245 40.873 125.688 42.7361 122.089 44.5137C117.474 46.794 112.819 48.9906 108.199 51.2608C104.672 52.9949 101.234 54.9284 97.6351 56.4949C95.7369 57.3209 94.9318 58.3061 94.9251 60.4356C94.8431 85.2407 94.6573 110.048 94.5552 134.853C94.5468 136.733 93.7952 138.093 92.2854 138.87C87.9098 141.124 83.4656 143.242 79.0298 145.376C74.2843 147.658 69.5053 149.868 64.7665 152.162C61.0236 153.973 57.331 155.89 53.5949 157.713C48.8376 160.035 44.067 162.325 39.288 164.6C35.5385 166.387 31.7806 168.152 28.006 169.882C26.5915 170.53 25.9052 171.363 25.9169 173.098C26.0057 186.038 25.9655 198.977 25.9588 211.917V211.922Z" fill="white"/>
<path d="M101 127.782C100.62 124.822 102.719 123.779 104.66 122.801C109.444 120.39 114.29 118.108 119.121 115.789C125.139 112.901 131.155 110.007 137.196 107.167C138.554 106.529 139.201 105.772 139.153 104.118C139.012 99.4049 139.057 94.6834 139.143 89.967C139.168 88.5764 138.602 88.0168 137.405 87.4605C133.39 85.5958 129.466 83.5316 125.479 81.6065C119.985 78.9526 114.411 76.4595 108.984 73.6766C107.133 72.7266 105.066 72.1519 103.452 70.6875C100.951 68.4173 101.631 64.4816 104.742 63.0826C108.41 61.434 112.027 59.6714 115.636 57.8954C119.24 56.1228 122.795 54.2563 126.389 52.4653C131.177 50.0794 135.979 47.7254 140.778 45.363C145.499 43.0375 150.328 40.9264 154.874 38.2591C157.817 36.5317 160.527 37.4063 163.267 38.8136C168.197 41.3486 173.252 43.6272 178.243 46.0298C181.968 47.8226 185.707 49.6002 189.415 51.4365C193.011 53.2175 196.656 54.898 200.27 56.6422C204.144 58.512 208.049 60.3282 211.85 62.3387C213.027 62.9603 214.276 63.4345 215.458 64.0343C217.346 64.9927 218.338 66.4553 218.154 68.3034C217.982 70.0324 216.974 71.3862 215.016 72.177C211.31 73.6732 207.796 75.6452 204.18 77.3726C198.221 80.2175 192.241 83.0172 186.278 85.8538C184.815 86.5491 183.429 87.4354 181.921 88.0017C180.121 88.6769 179.859 89.9117 179.885 91.6274C179.957 96.2014 179.906 100.777 179.788 105.351C179.752 106.757 180.15 107.564 181.467 108.162C185.043 109.786 188.551 111.557 192.097 113.249C195.843 115.037 199.606 116.786 203.349 118.579C206.189 119.939 208.953 121.476 211.852 122.694C215.837 124.369 216.589 128.759 214.048 131.044C212.943 132.038 211.445 132.616 210.079 133.286C205.334 135.617 200.565 137.897 195.813 140.212C190.059 143.017 184.301 145.817 178.568 148.663C174.029 150.917 169.574 153.353 164.981 155.487C162.172 156.793 159.374 159.242 156.044 157.65C153.768 156.563 151.479 155.452 149.223 154.3C143.071 151.158 136.846 148.169 130.586 145.247C125.11 142.692 119.757 139.877 114.339 137.202C110.569 135.34 106.749 133.581 103.017 131.649C101.493 130.862 100.581 129.518 101.001 127.782H101ZM116.219 67.1976C117.407 67.9884 118.105 68.6552 118.937 68.9702C121.778 70.0458 124.402 71.5521 127.107 72.8975C131.694 75.1794 136.306 77.4179 140.907 79.663C145.887 82.0907 150.805 84.6676 155.88 86.8875C157.46 87.5778 158.776 89.5632 160.862 88.5764C166.461 85.9258 172.037 83.2216 177.591 80.4756C181.194 78.6929 184.813 76.9169 188.459 75.2498C193.188 73.0868 197.763 70.5954 202.587 68.6418C202.928 68.5028 203.288 68.3335 203.315 67.9415C203.345 67.4908 202.927 67.4891 202.602 67.34C199.999 66.1487 197.403 64.9391 194.828 63.6875C190.128 61.4005 185.458 59.0465 180.749 56.7796C173.776 53.422 166.772 50.128 159.799 46.7721C158.886 46.3331 158.26 46.3633 157.288 46.8776C153.614 48.8228 149.809 50.5184 146.076 52.3547C142.658 54.0352 139.273 55.7827 135.865 57.4866C132.146 59.3464 128.421 61.1927 124.695 63.0357C121.995 64.3711 119.289 65.693 116.219 67.1992V67.1976ZM147.775 118.58C147.638 118.58 147.501 118.58 147.363 118.58C147.363 126.36 147.375 134.139 147.35 141.918C147.347 143.121 147.333 144.039 148.863 144.496C150.388 144.952 151.781 145.89 153.19 146.69C154.683 147.537 155.088 147.211 155.097 145.465C155.18 130.049 155.283 114.631 155.565 99.2172C155.607 96.9202 154.769 95.816 152.892 95.0336C151.856 94.6013 150.868 94.0501 149.834 93.6145C148.46 93.0365 147.706 93.1119 147.732 95.0286C147.83 102.878 147.772 110.731 147.772 118.582L147.775 118.58ZM164.014 121.26C163.885 121.26 163.757 121.26 163.629 121.26C163.629 127.973 163.672 134.688 163.614 141.402C163.572 146.231 163.511 146.229 167.827 144.356C168.344 144.131 168.88 143.942 169.39 143.702C170.523 143.171 171.024 142.349 171.019 141.013C171.002 136.799 171.168 132.584 171.181 128.369C171.218 117.294 171.213 106.219 171.225 95.1442C171.225 94.2093 171.292 92.8907 169.871 93.715C168.577 94.4656 167.159 94.8811 165.867 95.6217C164.482 96.4142 163.943 97.3122 163.967 98.9659C164.072 106.395 164.012 113.827 164.012 121.258L164.014 121.26ZM114.55 127.635C116.403 128.605 118.085 129.54 119.814 130.379C125.609 133.19 131.47 135.875 137.198 138.815C138.81 139.643 138.969 139.334 138.972 137.808C138.987 131.173 139.056 124.54 139.091 117.905C139.101 115.886 138.766 115.724 136.923 116.711C135.119 117.677 133.319 118.656 131.476 119.546C125.917 122.23 120.338 124.872 114.55 127.635ZM179.606 116.89C179.606 123.516 179.599 129.585 179.616 135.653C179.618 136.406 179.157 137.478 179.939 137.82C180.599 138.108 181.518 137.666 182.298 137.272C186.126 135.343 190.021 133.547 193.831 131.585C196.452 130.233 199.244 129.166 201.777 127.387C194.405 123.897 187.264 120.516 179.606 116.888V116.89Z" fill="white"/>
<path d="M150.602 206.678C150.602 216.757 150.492 226.838 150.648 236.916C150.728 242.15 148.846 242.928 145.432 244.722C141.642 246.713 137.752 248.516 133.89 250.37C131.105 251.709 128.319 253.056 125.489 254.293C122.566 255.571 118.959 253.125 118.957 249.905C118.946 232.391 118.949 214.876 118.947 197.362C118.947 196.504 118.887 195.643 118.941 194.789C119.038 193.217 118.681 192.688 117.036 193.525C109.523 197.347 101.962 201.077 94.4246 204.85C92.3255 205.9 90.2516 205.964 88.1307 204.902C83.5392 202.601 78.9427 200.313 74.3261 198.063C73.0221 197.426 71.5089 196.062 70.3723 196.607C69.5019 197.024 70.1079 199.111 70.1062 200.452C70.0861 217.322 70.0945 234.194 70.0928 251.064C70.0928 255.487 66.8639 257.303 62.9369 255.221C57.0816 252.114 51.1175 249.224 45.0714 246.502C43.7925 245.925 42.5505 245.23 41.3151 244.572C39.5157 243.613 38.3272 242.087 38.3306 239.773C38.3624 219.544 38.3239 199.312 38.354 179.083C38.3574 176.938 39.4538 175.481 41.5143 174.541C46.1176 172.441 50.6304 170.144 55.1817 167.931C60.9349 165.133 66.6914 162.34 72.4446 159.542C73.7586 158.904 74.8852 159.443 76.087 159.986C81.0284 162.213 85.7588 164.87 90.7203 167.063C92.0644 167.656 92.9984 167.167 93.8689 166.757C98.765 164.455 103.564 161.948 108.432 159.584C110.641 158.512 112.901 157.568 115.062 156.362C116.363 155.637 118.129 155.789 119.612 156.523C125.43 159.395 131.225 162.312 137.054 165.16C140.392 166.79 143.753 168.378 147.149 169.88C149.389 170.87 150.626 172.472 150.629 174.94C150.641 185.52 150.634 196.099 150.634 206.679H150.597L150.602 206.678ZM136.103 174.165C129.94 171.218 124.009 168.392 118.089 165.545C117.201 165.118 116.386 165.398 115.648 165.781C108.758 169.364 101.525 172.242 94.7544 176.065C93.3299 176.87 91.8317 177.2 90.2599 176.436C86.2024 174.465 82.1616 172.46 78.079 170.543C75.8996 169.521 73.9378 167.695 71.1574 169.742C69.219 171.17 66.7232 171.823 64.5154 172.902C60.9249 174.656 57.3678 176.474 53.5798 178.374C54.0887 178.728 54.3916 179.036 54.7582 179.177C58.7086 180.691 62.3828 182.782 66.1943 184.59C69.8568 186.328 73.4992 188.104 77.0947 189.983C80.8275 191.935 84.7712 193.487 88.4705 195.496C90.4625 196.578 92.0711 196.464 93.9425 195.44C96.5889 193.993 99.3174 192.693 102.026 191.359C106.513 189.146 111.015 186.959 115.507 184.754C119.233 182.926 123.018 181.201 126.662 179.219C129.679 177.577 133.025 176.546 136.105 174.167L136.103 174.165ZM127.484 216.015H127.462C127.462 224.513 127.462 233.013 127.462 241.51C127.462 243.679 127.737 243.741 129.759 242.792C132.502 241.507 135.1 239.932 137.954 238.853C142.112 237.282 142.086 237.211 142.084 232.734C142.081 219.949 142.077 207.165 142.074 194.38C142.074 190.809 142.012 187.236 142.099 183.667C142.142 181.856 141.67 181.434 139.981 182.285C136.59 183.992 133.154 185.611 129.704 187.194C127.948 188 127.4 189.198 127.431 191.158C127.556 199.441 127.484 207.728 127.484 216.013V216.015ZM61.4873 217.771C61.3935 217.771 61.2998 217.771 61.2044 217.771C61.2044 209.62 61.2161 201.47 61.1826 193.319C61.1793 192.636 61.5894 191.811 60.5181 191.317C56.8221 189.615 53.163 187.832 49.5105 186.036C47.4215 185.009 47.3512 185.002 47.3479 187.4C47.3244 203.558 47.3479 219.716 47.2558 235.874C47.2458 237.576 48.2819 238.121 49.375 238.659C52.7797 240.334 56.3049 241.774 59.6477 243.556C61.6296 244.613 61.5074 243.665 61.5007 242.221C61.4689 234.07 61.4856 225.92 61.4856 217.769L61.4873 217.771Z" fill="white"/>
<path d="M192.478 207.234C192.478 219.172 192.498 231.109 192.448 243.047C192.443 244.25 192.661 245.01 193.817 245.565C197.446 247.304 201.018 249.159 204.629 250.938C208.171 252.684 211.731 254.391 215.283 256.115C218.368 257.613 221.437 259.148 224.543 260.599C226.582 261.551 229.096 259.917 229.103 257.687C229.123 252.111 229.125 246.535 229.127 240.959C229.127 235.547 229.937 234.587 234.945 232.508C238.708 230.947 242.262 228.883 245.993 227.234C249.028 225.892 251.654 223.483 255.234 223.506C257.526 223.521 259.813 225.537 259.829 227.84C259.883 235.417 259.923 242.997 259.724 250.57C259.664 252.832 258.609 254.703 256.152 255.842C249.197 259.064 242.394 262.616 235.513 265.997C233.06 267.202 230.457 268.123 228.097 269.479C225.968 270.702 224.009 270.141 222.188 269.269C217.433 266.998 212.816 264.437 208.087 262.107C203.564 259.877 198.878 257.963 194.438 255.586C190.234 253.334 185.915 251.337 181.653 249.214C176.926 246.859 172.298 244.29 167.494 242.107C164.931 240.942 164.064 239.103 164.06 236.59C164.045 224.293 164.059 211.999 164.065 199.703C164.071 192.269 164.116 184.833 164.069 177.399C164.054 175.048 164.82 173.333 167.02 172.286C175.073 168.457 183.119 164.61 191.144 160.72C195.9 158.414 200.597 155.988 205.344 153.663C209.503 151.624 213.71 149.68 217.866 147.636C219.923 146.626 221.475 148 223.03 148.762C228.184 151.289 233.291 153.906 238.482 156.365C244.778 159.349 250.984 162.524 257.178 165.719C258.612 166.46 259.493 167.866 259.498 169.565C259.521 179.715 259.685 189.871 259.417 200.014C259.312 204.029 255.785 205.282 252.141 203.354C248.217 201.278 244.239 199.302 240.265 197.322C237.31 195.849 234.244 194.583 231.391 192.937C230.079 192.18 229.466 190.685 229.481 188.948C229.552 180.514 229.48 172.078 229.545 163.642C229.557 162.092 229.269 161.259 227.602 160.717C225.546 160.05 223.521 159.041 221.756 157.793C219.51 156.203 217.652 157.317 215.782 158.205C208.533 161.651 201.335 165.208 194.1 168.685C192.88 169.271 192.612 170.136 192.617 171.414C192.662 183.352 192.644 195.29 192.644 207.229H192.48L192.478 207.234ZM183.434 174.005C180.068 175.66 176.672 177.337 173.267 178.996C172.433 179.401 172.544 180.137 172.544 180.839C172.544 198.488 172.554 216.137 172.522 233.787C172.52 234.891 172.905 235.45 173.89 235.884C176.466 237.017 179.025 238.195 181.536 239.463C183.607 240.509 183.568 240.577 183.578 238.133C183.657 217.483 183.737 196.833 183.811 176.183C183.812 175.554 183.985 174.898 183.434 174.006V174.005ZM238.418 166.567C238.418 173.071 238.43 179.492 238.403 185.91C238.4 186.718 238.85 187.03 239.448 187.326C242.729 188.961 246.008 190.6 249.28 192.25C249.712 192.468 250.094 193.021 250.583 192.812C251.257 192.522 250.921 191.801 250.922 191.282C250.948 185.425 250.911 179.565 250.958 173.708C250.968 172.467 250.668 171.85 249.354 171.434C247.69 170.907 246.219 169.801 244.585 169.141C242.595 168.335 240.941 166.716 238.418 166.567ZM250.938 241.903C250.938 239.904 250.902 237.903 250.951 235.904C250.983 234.594 250.598 234.469 249.464 235.048C245.963 236.838 242.417 238.542 238.869 240.235C238.085 240.609 237.612 241.038 237.618 241.981C237.65 245.909 237.645 249.836 237.628 253.763C237.623 254.844 237.771 255.137 238.944 254.557C242.541 252.781 246.214 251.158 249.875 249.514C250.715 249.137 250.988 248.593 250.958 247.688C250.894 245.763 250.938 243.833 250.938 241.904V241.903Z" fill="white"/>
<path d="M264.667 241.024C264.667 239.453 264.751 237.876 264.648 236.311C264.476 233.689 265.31 231.979 267.946 230.88C272.363 229.038 276.613 226.79 280.937 224.722C283.801 223.353 286.258 224.761 286.317 227.884C286.397 232.096 286.309 236.313 286.406 240.525C286.479 243.69 283.65 243.836 281.876 244.818C278.192 246.855 274.238 248.395 270.489 250.322C267.318 251.95 264.707 250.571 264.663 247.026C264.638 245.025 264.658 243.025 264.658 241.024H264.665H264.667Z" fill="white"/>
</svg>